<?xml version="1.0" encoding="UTF-8"?>
<svg width="34px" height="39px" viewBox="0 0 34 39" version="1.1" xmlns="http://www.w3.org/2000/svg" xmlns:xlink="http://www.w3.org/1999/xlink">
    <!-- Generator: Sketch 42 (36781) - http://www.bohemiancoding.com/sketch -->
    <title>CERTIFICATOIN</title>
    <desc>Created with Sketch.</desc>
    <defs>
        <polygon id="path-1" points="33.1070866 0.0195965418 6.72116057e-05 0.0195965418 6.72116057e-05 39.8846916 33.1070866 39.8846916 33.1070866 0.0195965418"></polygon>
    </defs>
    <g id="SPRYKER---DOCUMENTATION" stroke="none" stroke-width="1" fill="none" fill-rule="evenodd">
        <g id="SPRYKER-2.0---DOCUMENTATION" transform="translate(-958.000000, -1114.000000)">
            <g id="ENABLEMENT" transform="translate(148.000000, 459.000000)">
                <g id="5" transform="translate(783.000000, 626.000000)">
                    <g id="CERTIFICATOIN" transform="translate(27.000000, 28.000000)">
                        <g id="Group-3" transform="translate(0.000000, 0.095677)">
                            <mask id="mask-2" fill="white">
                                <use xlink:href="#path-1"></use>
                            </mask>
                            <g id="Clip-2"></g>
                            <path d="M5.00798847,13.8374294 C5.00798847,7.47120461 10.1873545,2.29183862 16.5535793,2.29183862 C22.9196888,2.29183862 28.0989395,7.47120461 28.0989395,13.8374294 C28.0989395,20.2036542 22.9196888,25.3829049 16.5535793,25.3829049 C10.1873545,25.3829049 5.00798847,20.2036542 5.00798847,13.8374294 L5.00798847,13.8374294 Z M33.0585937,36.5061326 L27.7808991,23.7648069 C27.6464899,23.440196 27.2745014,23.2859597 26.9497752,23.4203689 C26.6251643,23.5550086 26.470928,23.9271124 26.6055677,24.2516081 L31.3767493,35.7702248 L27.0247032,34.509245 C26.7390548,34.4263631 26.4339251,34.5527032 26.2904092,34.8133372 L24.1048184,38.7823285 L18.9852795,26.4226744 C24.894098,25.2831931 29.3712161,20.0737406 29.3712161,13.8374294 C29.3712161,6.76964841 23.621245,1.01956196 16.5535793,1.01956196 C9.48579827,1.01956196 3.73571182,6.76964841 3.73571182,13.8374294 C3.73571182,16.7001383 4.67922767,19.3465937 6.27150432,21.4823862 L0.0484495677,36.5061326 C-0.045037464,36.7321844 -0.000887608069,36.9916657 0.162224784,37.1739135 C0.325221902,37.3560461 0.578363112,37.4286686 0.813291066,37.3606571 L5.94758501,35.8728184 L8.52614409,40.5554697 C8.63842075,40.7592738 8.85248415,40.8846916 9.08326225,40.8846916 C9.09502017,40.8846916 9.1067781,40.8843458 9.11853602,40.8837695 C9.36268588,40.8701671 9.57744092,40.7180058 9.6711585,40.4919539 L14.6021095,28.5874006 C14.736634,28.2627896 14.582513,27.8906859 14.257902,27.7562767 C13.9332911,27.6218674 13.5611873,27.7758732 13.4267781,28.1004841 L9.00210951,38.7823285 L6.81663401,34.8133372 C6.67311816,34.5527032 6.3678732,34.4263631 6.08234006,34.509245 L1.73040922,35.7702248 L7.19254179,22.583366 C9.53340634,25.0872277 12.8635504,26.6551816 16.5535793,26.6551816 C16.9344438,26.6551816 17.3111585,26.6375447 17.6837233,26.6048069 L23.436,40.4919539 C23.5296023,40.7180058 23.7444726,40.8701671 23.9885072,40.8836542 C24.0003804,40.8843458 24.0121383,40.8846916 24.0238963,40.8846916 C24.2546744,40.8846916 24.4687378,40.7592738 24.5808991,40.5554697 L27.1595735,35.8728184 L32.2939827,37.3606571 C32.5289107,37.4287839 32.7819366,37.3560461 32.9449337,37.1739135 C33.1081614,36.9916657 33.152196,36.7321844 33.0585937,36.5062478 L33.0585937,36.5061326 Z" id="Fill-1" fill="#E2694A" mask="url(#mask-2)"></path>
                        </g>
                        <path d="M19.5823055,14.6189625 C19.4424784,14.7613256 19.3775793,14.9609798 19.4069741,15.1583285 L19.9133718,18.5574063 L16.8372911,17.0254179 C16.7478386,16.9810375 16.6507781,16.9586744 16.5536023,16.9586744 C16.4564265,16.9586744 16.3592507,16.9809222 16.2700288,17.0254179 L13.1938329,18.5574063 L13.7001153,15.1583285 C13.7296254,14.9609798 13.6647262,14.7612104 13.5248991,14.6189625 L11.1172911,12.1666282 L14.5064553,11.5978674 C14.7032277,11.5648991 14.8731412,11.4414409 14.9653602,11.2644957 L16.5536023,8.21700288 L18.1417291,11.264611 C18.2340634,11.4415562 18.4038617,11.5648991 18.600634,11.5978674 L21.9899135,12.1667435 L19.5823055,14.6189625 Z M23.9039193,11.5447262 C23.8306052,11.3192507 23.6379827,11.1532565 23.4042075,11.1139481 L19.1236311,10.395562 L17.1177522,6.54657061 C17.0081268,6.33631124 16.7906052,6.20443804 16.5536023,6.20443804 C16.3164841,6.20443804 16.0989625,6.33631124 15.9894524,6.54657061 L13.9834582,10.395562 L9.70288184,11.1139481 C9.46910663,11.1531412 9.27648415,11.3192507 9.20317003,11.5447262 C9.12985591,11.770317 9.18806916,12.0178098 9.35417867,12.1870317 L12.3949856,15.2842075 L11.755562,19.5772334 C11.7205187,19.8117003 11.8189625,20.0462824 12.0107781,20.1856484 C12.2024784,20.3248991 12.4559654,20.3461095 12.6682997,20.2405187 L16.5536023,18.3055331 L20.4389049,20.2405187 C20.5287032,20.2851297 20.6256484,20.307147 20.7223631,20.307147 C20.8544669,20.307147 20.9856484,20.2661095 21.0963112,20.1857637 C21.2881268,20.0462824 21.3864553,19.8118156 21.3516427,19.5773487 L20.712219,15.2842075 L23.7530259,12.1870317 C23.9190202,12.0178098 23.9772334,11.770317 23.9039193,11.5447262 L23.9039193,11.5447262 Z" id="Fill-4" fill="#E2694A"></path>
                        <path d="M26.1900519,14.5747781 C25.8416945,14.5282075 25.5219251,14.7735101 25.4759308,15.1218674 C24.8858444,19.5754697 21.0499942,22.9340865 16.5535101,22.9340865 C11.5903977,22.9340865 7.5525879,18.8962767 7.5525879,13.9331643 C7.5525879,8.96982133 11.5903977,4.9321268 16.5535101,4.9321268 C21.0501095,4.9321268 24.8858444,8.29062824 25.4759308,12.7443458 C25.5219251,13.0927032 25.8422709,13.338121 26.1900519,13.2914352 C26.5382939,13.2453256 26.7832507,12.9255562 26.7370259,12.5771988 C26.0635965,7.49351009 21.6857291,3.65985014 16.5535101,3.65985014 C10.8888415,3.65985014 6.28031124,8.2683804 6.28031124,13.9331643 C6.28031124,19.5978329 10.8888415,24.2062478 16.5535101,24.2062478 C21.6857291,24.2062478 26.0635965,20.3725879 26.7371412,15.2888991 C26.7832507,14.9406571 26.5382939,14.6208876 26.1900519,14.5747781" id="Fill-6" fill="#E2694A"></path>
                    </g>
                </g>
            </g>
        </g>
    </g>
</svg>