<?xml version="1.0" encoding="UTF-8"?>
<svg width="42px" height="22px" viewBox="0 0 42 22" version="1.1" xmlns="http://www.w3.org/2000/svg" xmlns:xlink="http://www.w3.org/1999/xlink">
    <!-- Generator: Sketch 42 (36781) - http://www.bohemiancoding.com/sketch -->
    <title>Fill 1</title>
    <style>
        #SPRYKER---DOCUMENTATION * {
            fill: #fff;
        }
    </style>
    <desc>Created with Sketch.</desc>
    <defs></defs>
    <g id="SPRYKER---DOCUMENTATION" stroke="none" stroke-width="1" fill="none" fill-rule="evenodd">
        <g id="SPRYKER-2.0---DOCUMENTATION" transform="translate(-951.000000, -893.000000)" fill="#E2694A">
            <g id="ENABLEMENT" transform="translate(148.000000, 459.000000)">
                <g id="3" transform="translate(783.000000, 396.000000)">
                    <path d="M52.8565463,58.1736233 C52.0241128,58.1736233 51.3467531,57.4961636 51.3467531,56.66373 C51.3467531,55.8312965 52.0241128,55.1539369 52.8565463,55.1539369 C53.6889798,55.1539369 54.3663394,55.8312965 54.3663394,56.66373 C54.3663394,57.4961636 53.6889798,58.1736233 52.8565463,58.1736233 L52.8565463,58.1736233 Z M29.1433536,58.1736233 C28.31082,58.1736233 27.6335605,57.4961636 27.6335605,56.66373 C27.6335605,55.8312965 28.31082,55.1539369 29.1433536,55.1539369 C29.9758872,55.1539369 30.6531467,55.8312965 30.6531467,56.66373 C30.6531467,57.4961636 29.9757871,58.1736233 29.1433536,58.1736233 L29.1433536,58.1736233 Z M21.4391139,49.521921 L21.4391139,40.0233691 C21.4391139,39.6644666 21.7310412,39.3724391 22.0899437,39.3724391 L26.9307724,39.3724391 C27.1651352,39.3724391 27.3822787,39.4991812 27.4974078,39.7030098 L27.8600144,40.344329 C28.2183163,40.9784401 28.8932732,41.3721817 29.6215899,41.3721817 L36.1967635,41.3721817 C36.5555659,41.3721817 36.8475934,41.6642091 36.8475934,42.0231116 L36.8475934,49.5217208 C36.8475934,49.8807234 36.5555659,50.1727509 36.1967635,50.1727509 L22.0899437,50.1727509 C21.7310412,50.172851 21.4391139,49.8809236 21.4391139,49.521921 L21.4391139,49.521921 Z M45.1523065,49.521921 L45.1523065,40.0233691 C45.1523065,39.6644666 45.4442339,39.3724391 45.8031364,39.3724391 L50.643965,39.3724391 C50.8783278,39.3724391 51.0954714,39.4991812 51.2107006,39.7030098 L51.5733072,40.344329 C51.9315089,40.9784401 52.6064658,41.3721817 53.3346825,41.3721817 L59.9098561,41.3721817 C60.2687585,41.3721817 60.560786,41.6642091 60.560786,42.0231116 L60.560786,49.5217208 C60.560786,49.8807234 60.2687585,50.1727509 59.9098561,50.1727509 L45.8031364,50.1727509 C45.4442339,50.172851 45.1522064,49.8809236 45.1522064,49.521921 L45.1523065,49.521921 Z M61.3138305,55.9774604 L55.6557854,55.9774604 C55.4009997,54.9386955 54.5819812,54.119577 53.5432163,53.8646911 L53.5432163,51.5453902 L59.9099562,51.5453902 C61.0257074,51.5453902 61.9334253,50.6376722 61.9334253,49.521921 L61.9334253,42.0232117 C61.9334253,40.9074605 61.0257074,39.9997426 59.9099562,39.9997426 L53.3347826,39.9997426 C53.1005199,39.9997426 52.8834765,39.8731005 52.7682472,39.6691719 L52.4057407,39.0277526 C52.0474389,38.3936414 51.3723819,38 50.6440651,38 L45.8032365,38 C44.6874853,38 43.7797673,38.9077179 43.7797673,40.0234692 L43.7797673,49.521921 C43.7797673,50.6376722 44.6874853,51.5454903 45.8032365,51.5454903 L52.1707772,51.5454903 L52.1707772,53.8644909 C51.131712,54.1192766 50.3122931,54.9384953 50.0576075,55.9775606 L31.9426929,55.9775606 C31.687807,54.9385954 30.8684882,54.1192766 29.829423,53.8644909 L29.829423,51.5454903 L36.1970639,51.5454903 C37.3126149,51.5454903 38.2204329,50.6378725 38.2204329,49.521921 L38.2204329,42.0233119 C38.2204329,40.9075606 37.312715,39.9998427 36.1970639,39.9998427 L29.6215899,39.9998427 C29.3872271,39.9998427 29.1701837,39.8732007 29.0549545,39.669272 L28.692448,39.0277526 C28.3341461,38.3937416 27.6590891,38.0001001 26.9307724,38.0001001 L22.0899437,38.0001001 C20.9741925,38.0001001 20.0664745,38.9078181 20.0664745,40.0235693 L20.0664745,49.5221212 C20.0664745,50.6378725 20.9741925,51.5455904 22.0899437,51.5455904 L28.4566836,51.5455904 L28.4566836,53.8648913 C27.4179187,54.1196771 26.5990003,54.9386955 26.3442146,55.9775606 L20.6862696,55.9775606 C20.3071444,55.9775606 20,56.2849052 20,56.6639303 C20,57.0428552 20.3071444,57.3501999 20.6862696,57.3501999 L26.3442146,57.3501999 C26.6529608,58.6093119 27.7904364,59.5462626 29.1433536,59.5462626 C30.4961707,59.5462626 31.6337464,58.6093119 31.9425928,57.3501999 L50.0575073,57.3501999 C50.3662536,58.6093119 51.5037292,59.5462626 52.8566464,59.5462626 C54.2095636,59.5462626 55.3470392,58.6093119 55.6557854,57.3501999 L61.3138305,57.3501999 C61.6928556,57.3501999 62,57.0428552 62,56.6639303 C62,56.2849052 61.6928556,55.9774604 61.3138305,55.9774604 L61.3138305,55.9774604 Z" id="Fill-1"></path>
                </g>
            </g>
        </g>
    </g>
</svg>
