<?xml version="1.0" encoding="UTF-8"?>
<svg width="37px" height="37px" viewBox="0 0 37 37" version="1.1" xmlns="http://www.w3.org/2000/svg" xmlns:xlink="http://www.w3.org/1999/xlink">
    <!-- Generator: Sketch 42 (36781) - http://www.bohemiancoding.com/sketch -->
    <title>Page 1</title>
    <desc>Created with Sketch.</desc>
    <defs>
        <polygon id="path-1" points="0 37 36.2525253 37 36.2525253 0 0 0"></polygon>
    </defs>
    <g id="SPRYKER---DOCUMENTATION" stroke="none" stroke-width="1" fill="none" fill-rule="evenodd">
        <g id="SPRYKER-2.0---DOCUMENTATION" transform="translate(-955.000000, -1000.000000)">
            <g id="ENABLEMENT" transform="translate(148.000000, 459.000000)">
                <g id="4" transform="translate(783.000000, 511.000000)">
                    <g id="Page-1" transform="translate(24.000000, 30.000000)">
                        <path d="M15.5245079,8.63810318 L20.905632,12.1463374 L15.5245079,15.6546794 L15.5245079,8.63810318 Z M14.5452613,17.4823786 C14.6444268,17.5378613 14.7542135,17.5656566 14.863264,17.5656566 C14.9869318,17.5656566 15.1099686,17.5297813 15.2183882,17.45997 L22.4918601,12.718187 C22.682199,12.5934315 22.7979798,12.3780722 22.7979798,12.1463374 C22.7979798,11.9147104 22.682199,11.6993511 22.4918601,11.5747034 L15.2183882,6.83281263 C15.013432,6.70073134 14.7574734,6.69189719 14.5446303,6.81040406 C14.3336801,6.92966506 14.2020202,7.15730599 14.2020202,7.40455441 L14.2020202,16.8882282 C14.2020202,17.1355844 14.3336801,17.3631176 14.5452613,17.4823786 Z" id="Fill-1" fill="#E2694A"></path>
                        <mask id="mask-2" fill="white">
                            <use xlink:href="#path-1"></use>
                        </mask>
                        <g id="Clip-4"></g>
                        <path d="M1.34272566,35.6545065 L34.9099064,35.6545065 L34.9099064,24.8908799 L1.34272566,24.8908799 L1.34272566,35.6545065 Z M1.3426189,23.5453865 L34.9097996,23.5453865 L34.9097996,1.34538646 L1.3426189,1.34538646 L1.3426189,23.5453865 Z M0,37 L36.2525253,37 L36.2525253,0 L0,0 L0,37 Z" id="Fill-3" fill="#E2694A" mask="url(#mask-2)"></path>
                        <path d="M31.4756746,29.7588105 L15.4984548,29.7588105 L15.4984548,28.3573511 C15.4984548,27.9697347 15.2008413,27.6565657 14.8327153,27.6565657 C14.4645892,27.6565657 14.1669757,27.9697347 14.1669757,28.3573511 L14.1669757,29.7588105 L11.5041234,29.7588105 C11.1359974,29.7588105 10.8383838,30.072091 10.8383838,30.459596 C10.8383838,30.8471009 11.1359974,31.1602699 11.5041234,31.1602699 L14.1669757,31.1602699 L14.1669757,32.5618408 C14.1669757,32.9494572 14.4645892,33.2626263 14.8327153,33.2626263 C15.2008413,33.2626263 15.4984548,32.9494572 15.4984548,32.5618408 L15.4984548,31.1602699 L31.4756746,31.1602699 C31.8439065,31.1602699 32.1414141,30.8471009 32.1414141,30.459596 C32.1414141,30.072091 31.8439065,29.7588105 31.4756746,29.7588105" id="Fill-5" fill="#E2694A" mask="url(#mask-2)"></path>
                        <path d="M4.85858586,27.6565657 C4.44526371,27.6565657 4.11111111,27.9698399 4.11111111,28.3573372 L4.11111111,32.5618548 C4.11111111,32.949352 4.44526371,33.2626263 4.85858586,33.2626263 C5.27190801,33.2626263 5.60606061,32.949352 5.60606061,32.5618548 L5.60606061,28.3573372 C5.60606061,27.9698399 5.27190801,27.6565657 4.85858586,27.6565657" id="Fill-6" fill="#E2694A" mask="url(#mask-2)"></path>
                        <path d="M7.47474747,27.6565657 C7.06142532,27.6565657 6.72727273,27.9698399 6.72727273,28.3573372 L6.72727273,32.5618548 C6.72727273,32.949352 7.06130645,33.2626263 7.47474747,33.2626263 C7.88806963,33.2626263 8.22222222,32.949352 8.22222222,32.5618548 L8.22222222,28.3573372 C8.22222222,27.9698399 7.88806963,27.6565657 7.47474747,27.6565657" id="Fill-7" fill="#E2694A" mask="url(#mask-2)"></path>
                    </g>
                </g>
            </g>
        </g>
    </g>
</svg>