<?xml version="1.0" encoding="UTF-8"?>
<svg width="32px" height="40px" viewBox="0 0 32 40" version="1.1" xmlns="http://www.w3.org/2000/svg" xmlns:xlink="http://www.w3.org/1999/xlink">
    <!-- Generator: Sketch 42 (36781) - http://www.bohemiancoding.com/sketch -->
    <title>HOWTO</title>
    <desc>Created with Sketch.</desc>
    <defs></defs>
    <g id="SPRYKER---DOCUMENTATION" stroke="none" stroke-width="1" fill="none" fill-rule="evenodd">
        <g id="SPRYKER-2.0---DOCUMENTATION" transform="translate(-956.000000, -770.000000)" fill="#E2694A">
            <g id="ENABLEMENT" transform="translate(148.000000, 459.000000)">
                <g id="2" transform="translate(783.000000, 281.000000)">
                    <path d="M40.7648113,31.7390958 C48.4916304,31.7390958 54.7778879,37.9804733 54.7778879,45.6521278 C54.7778879,52.0655577 50.3840545,57.47851 44.4286105,59.0819007 L47.7418222,46.7470551 C47.8663449,46.2830309 47.5885738,45.8065372 47.121213,45.6827709 C46.6537185,45.5588719 46.1740657,45.8349252 46.0492758,46.2989494 L45.7411757,47.4460098 C45.1678637,47.5482861 44.7957653,47.778441 44.5047671,47.9584527 C44.2001408,48.1469543 44.0162961,48.2609042 43.5653691,48.2609042 C43.1145756,48.2609042 42.930731,48.1469543 42.6261047,47.9584527 C42.2402447,47.7196753 41.711825,47.3925501 40.7598678,47.3925501 C39.8085787,47.3925501 39.280827,47.7199406 38.8953679,47.9588507 C38.5914096,48.1472196 38.4078322,48.2609042 37.9587756,48.2609042 C37.5097191,48.2609042 37.3264089,48.1472196 37.0225842,47.9588507 C36.732254,47.778839 36.3608237,47.5486841 35.7883133,47.4461424 L35.4802132,46.2989494 C35.355557,45.8349252 34.8756369,45.5588719 34.4081425,45.6829035 C33.9409152,45.8065372 33.6630105,46.2831635 33.7876668,46.7471877 L37.1008785,59.0820333 C31.145301,57.4786427 26.7514676,52.0656903 26.7514676,45.6522604 C26.7516012,37.9804733 33.0378586,31.7390958 40.7648113,31.7390958 L40.7648113,31.7390958 Z M38.9835492,59.3411069 L36.3657672,49.5956702 C36.7265089,49.7979677 37.2119068,49.9998673 37.9589093,49.9998673 C38.9100648,49.9998673 39.4378165,49.6726096 39.8234092,49.4336995 C40.1273675,49.2451979 40.3108113,49.1315133 40.7600014,49.1315133 C41.2106613,49.1315133 41.3946395,49.2454632 41.6993994,49.4339648 C42.0852594,49.6727422 42.6135455,49.9998673 43.5655027,49.9998673 C44.3159789,49.9998673 44.802713,49.7966412 45.1642563,49.5935477 L42.5459399,59.3411069 C42.535652,59.3791786 42.5291053,59.4175157 42.5241618,59.4555874 C41.9477768,59.5276186 41.3605695,59.5648944 40.7648113,59.5648944 C40.1689195,59.5648944 39.5818459,59.5276186 39.0053273,59.4555874 C39.0003838,59.4176483 38.9937034,59.3794439 38.9835492,59.3411069 L38.9835492,59.3411069 Z M45.1438142,63.9130319 C45.1438142,64.8718561 44.3580655,65.6522604 43.3922131,65.6522604 L38.137276,65.6522604 C37.1714236,65.6522604 36.3856748,64.8718561 36.3856748,63.9130319 L36.3856748,60.6894036 C37.7766679,61.0890905 39.2458217,61.3043882 40.7648113,61.3043882 C42.2838009,61.3043882 43.7529547,61.0890905 45.1438142,60.6894036 L45.1438142,63.9130319 Z M40.7648113,68.2609042 C40.1180149,68.2609042 39.5536546,67.9101666 39.2500972,67.3912236 L42.2793919,67.3912236 C41.9758344,67.9101666 41.4113405,68.2609042 40.7648113,68.2609042 L40.7648113,68.2609042 Z M34.63394,60.0721639 L34.63394,63.9130319 C34.63394,65.5625862 35.7969979,66.9466996 37.3515272,67.3018147 C37.7093295,68.8452457 39.1031284,70 40.7648113,70 C42.4263607,70 43.8202932,68.8452457 44.1780955,67.3018147 C45.7326248,66.9466996 46.895549,65.5625862 46.895549,63.9130319 L46.895549,60.0721639 C52.551711,57.6927465 56.529489,52.1249867 56.529489,45.6521278 C56.529489,37.0215165 49.4576164,30 40.7648113,30 C32.0720062,30 25,37.0215165 25,45.6521278 C25,52.1249867 28.977778,57.6927465 34.63394,60.0721639 L34.63394,60.0721639 Z M44.8111436,36.018545 C47.3451534,37.0690332 49.4060571,39.1140295 50.4654351,41.6292847 C50.6058571,41.9627772 50.9311927,42.1636156 51.2737636,42.1636156 C51.3863952,42.1636156 51.5008973,42.141993 51.6112575,42.095962 C52.0575083,41.9107768 52.2682082,41.4013849 52.0814241,40.9583201 C50.8456835,38.024541 48.441808,35.6390215 45.4861314,34.4136952 C45.0396133,34.2286427 44.5268258,34.4378383 44.3404426,34.8810358 C44.1539258,35.3242333 44.3647592,35.8333599 44.8111436,36.018545" id="HOWTO"></path>
                </g>
            </g>
        </g>
    </g>
</svg>