<?xml version="1.0" encoding="UTF-8" standalone="no"?>
<svg width="110px" height="110px" viewBox="0 0 110 110" version="1.1" xmlns="http://www.w3.org/2000/svg" xmlns:xlink="http://www.w3.org/1999/xlink">
    <!-- Generator: Sketch 41.1 (35376) - http://www.bohemiancoding.com/sketch -->
    <title>ICON</title>
    <desc>Created with Sketch.</desc>
    <defs>
        <circle id="path-1" cx="55" cy="55" r="55"></circle>
        <mask id="mask-2" maskContentUnits="userSpaceOnUse" maskUnits="objectBoundingBox" x="0" y="0" width="110" height="110" fill="white">
            <use xlink:href="#path-1"></use>
        </mask>
        <mask id="mask-4" maskContentUnits="userSpaceOnUse" maskUnits="objectBoundingBox" x="0" y="0" width="110" height="110" fill="white">
            <use xlink:href="#path-1"></use>
        </mask>
    </defs>
    <g id="Symbols" stroke="none" stroke-width="1" fill="none" fill-rule="evenodd">
        <g id="FURTHER-INFO" transform="translate(-731.000000, -97.000000)">
            <g transform="translate(0.000000, 13.000000)" id="1---GITHUB">
                <g transform="translate(677.000000, 84.000000)">
                    <g id="ICON" transform="translate(54.000000, 0.000000)">
                        <mask id="mask-3" fill="white">
                            <use xlink:href="#path-1"></use>
                        </mask>
                        <g id="Mask" stroke="#E2694A" mask="url(#mask-2)" stroke-width="4" fill="#E2694A">
                            <use mask="url(#mask-4)" xlink:href="#path-1"></use>
                        </g>
                        <path d="M38.2491314,104.444386 C39.0404454,104.580212 39.6242539,104.511322 39.9135857,104.245532 C40.2693096,103.918669 40.4280624,103.55052 40.4280624,103.052164 C40.4280624,102.914628 40.414588,101.513856 40.392784,99.2978811 C40.3753898,97.5795295 40.3643653,95.9823468 40.3597105,94.5297852 L40.1823385,94.5603217 C39.0906682,94.7599084 37.7412695,94.8466322 36.0736303,94.822203 C34.4544989,94.7999724 32.7510913,94.6289678 31.0116704,94.3145637 C29.1524499,93.9815934 27.3995546,93.201324 25.8039421,91.9952532 C24.1811359,90.7681733 23.0108241,89.14705 22.3243653,87.1763445 L21.6437862,85.6150728 C21.2175056,84.6381482 20.5276169,83.5280842 19.5932294,82.3159062 C18.7186192,81.1804358 17.8513586,80.4123811 17.0149666,80.0332395 L16.9059465,79.9838925 L16.3189532,79.5651756 C15.9183964,79.2795979 15.5393987,78.9312372 15.1937194,78.5303537 C14.8333408,78.1113925 14.5557684,77.6767966 14.3676169,77.2380477 C13.9768597,76.3295249 14.3203341,75.4073217 15.2427171,74.8899107 C15.8191759,74.5657349 16.6303341,74.4211139 17.8719376,74.4211139 L17.9630735,74.4211139 L19.5111581,74.6534358 C20.6167929,74.874276 21.8956347,75.4825637 23.4202004,76.5134769 C24.9386414,77.5399929 26.203029,78.8904404 27.1778396,80.5264655 L27.1932739,80.5526048 C28.1651448,82.2799952 29.3391314,83.6052806 30.6826503,84.4915728 C31.9862361,85.3517258 33.2998664,85.7877874 34.5880178,85.7877874 C36.0332071,85.7877874 37.29098,85.679566 38.3265479,85.465566 C39.1225167,85.2999358 39.8893318,85.0663925 40.613029,84.7693331 C40.9778174,82.6584039 41.6811804,80.848687 42.7135635,79.3585043 C40.9004009,79.0966231 39.2104677,78.7609655 37.6675278,78.3556847 C35.4530735,77.7725591 33.1457684,76.8185979 30.8090646,75.5199404 C28.4199332,74.194655 26.4039198,72.520276 24.8181069,70.5437075 C23.2376837,68.5732463 21.9311581,65.9759313 20.9345434,62.8240728 C19.9457684,59.6968879 19.4442762,56.0535135 19.4442762,51.9950865 C19.4442762,46.3433856 21.2402895,41.42505 24.7847884,37.3639358 C23.2438085,33.0350774 23.4981069,28.1924724 25.5432739,22.9555797 L25.7573942,22.4071436 L26.3211136,22.2324747 C26.8235857,22.0768605 27.389755,21.9979541 28.0039421,21.9979541 C29.4042984,21.9979541 31.0876169,22.3924861 33.1496882,23.2040249 C35.8514254,24.267429 37.8779733,25.2013582 39.1729844,25.9799176 C40.1664143,26.5767235 41.0246102,27.1144107 41.7326281,27.5832075 C45.9910245,26.4489587 50.4321826,25.8743833 54.9434076,25.8743833 C59.4627171,25.8743833 63.9117149,26.450913 68.1767261,27.5888263 L70.378441,26.2029564 C72.2624053,25.0454998 74.4976837,23.978187 77.0338085,23.0234929 C78.8949889,22.3233514 80.4371938,21.9830523 81.7486192,21.9830523 C82.3917149,21.9830523 82.983853,22.0683103 83.5088641,22.2368719 L84.0583742,22.4130066 L84.2717595,22.9477623 C86.3639644,28.1885637 86.6420267,33.0341002 85.1025167,37.3646687 C88.6475056,41.4265158 90.4437639,46.3446071 90.4437639,51.9958194 C90.4437639,56.0471619 89.9425167,59.7010409 88.9539866,62.8563194 C87.956392,66.0370043 86.634922,68.6394495 85.0255902,70.5915888 C83.4172383,72.5393308 81.3928953,74.1978308 79.0079287,75.5211619 C76.67049,76.8190865 74.3629399,77.7725591 72.1497105,78.3549518 C70.6187751,78.758034 68.9410913,79.0924701 67.1414031,79.3538628 C68.727461,81.6028171 69.5290646,84.6115203 69.5290646,88.3347783 L69.5290646,103.05021 C69.5290646,103.551009 69.6870824,103.935281 70.026882,104.259945 C70.2008241,104.426308 70.5009354,104.510589 70.9183964,104.510589 L70.9186414,104.510589 C71.1330067,104.510589 71.3748107,104.487625 71.6386637,104.442187 C82.1234521,100.95516 90.7999777,94.6006299 97.4281514,85.5544884 C104.07078,76.4880705 107.438886,66.1354541 107.438886,54.784171 C107.436192,45.3342144 105.067884,36.4959655 100.399621,28.5154267 C95.7259688,20.5309792 89.296971,14.1197737 81.29049,9.4603879 C73.2884187,4.80393356 64.4242316,2.44284909 54.9438976,2.44284909 C45.4628285,2.44284909 36.5986414,4.80393356 28.5973051,9.4603879 C20.5905791,14.1192852 14.1613363,20.5302463 9.48768374,28.515671 C4.81770601,36.4949884 2.44988864,45.3334815 2.44988864,54.7861253 C2.44988864,66.1391185 5.81824053,76.4917349 12.4611136,85.5561984 C19.0892873,94.60234 27.7653229,100.95687 38.2491314,104.444386 M38.9720935,106.955466 C38.5850111,106.955466 38.1646102,106.913936 37.7226503,106.832098 L37.5604677,106.790568 C26.5457684,103.145728 17.4356125,96.4863217 10.4830735,86.9975226 C3.52710468,77.5060363 0,66.6684998 0,54.7861253 C0,44.8952212 2.48026726,35.6421642 7.37171492,27.2844381 C12.2609577,18.9308651 18.986882,12.224066 27.3623163,7.35043584 C35.7433853,2.47289703 45.0233185,-7.32876715e-05 54.9438976,-7.32876715e-05 C64.8637416,-7.32876715e-05 74.1436748,2.47289703 82.5257238,7.35043584 C90.9009131,12.2247989 97.6265924,18.9315979 102.51559,27.2841938 C107.405323,35.6436299 109.88608,44.8957098 109.888775,54.7839267 C109.888775,66.6643468 106.361915,77.5018833 99.4061915,86.995324 C92.4536526,96.4846116 83.3430067,103.143774 72.3273274,106.78837 L72.1651448,106.830144 C71.7234298,106.911982 71.3037639,106.953511 70.9186414,106.953511 L70.9183964,106.953511 C69.8475501,106.953511 68.9775947,106.640573 68.331804,106.023735 C67.5120713,105.24029 67.0791759,104.212308 67.0791759,103.05021 L67.0791759,88.3347783 C67.0791759,84.2157669 65.9982851,81.1946048 63.866147,79.35484 L61.7303341,77.5114107 L64.5396214,77.21655 C67.1173942,76.9461185 69.4673274,76.5344861 71.5242539,75.9931345 C73.5402673,75.4625317 75.656971,74.5855226 77.8165479,73.3865363 C79.9330067,72.2124678 81.7214254,70.7498902 83.1335412,69.0393559 C84.5412472,67.3319975 85.712784,65.0065797 86.6155679,62.1273514 C87.5301114,59.2085477 87.9938753,55.7996938 87.9938753,51.9958194 C87.9938753,46.7151984 86.2446548,42.1606139 82.7947216,38.4588537 L82.2630958,37.888187 L82.5573274,37.1670363 C84.0870379,33.4186162 83.9753229,29.1439906 82.2275724,24.4521139 C81.1920045,24.3324107 79.7206013,24.6238514 77.8986192,25.3090911 C75.5087528,26.2088194 73.414588,27.2069975 71.6746771,28.275776 L68.5684633,30.2313354 L68.0446771,30.0852486 C63.8342984,28.9124016 59.4262138,28.3173057 54.9434076,28.3173057 C50.4610913,28.3173057 46.0534967,28.9124016 41.843363,30.0852486 L41.2921381,30.2389084 L40.8205345,29.9159541 C40.0738085,29.405139 39.094098,28.7848811 37.9081069,28.0720363 C36.7292205,27.3633445 34.825657,26.4899998 32.2503341,25.4764313 C30.2695991,24.6968947 28.6857461,24.3521984 27.5930958,24.4599313 C25.8901782,29.1461893 25.8010022,33.4178833 27.3299777,37.1663034 L27.6242094,37.8874541 L27.0925835,38.4578765 C23.6431403,42.1591482 21.8941648,46.7134884 21.8941648,51.9950865 C21.8941648,55.8040911 22.3574388,59.2002418 23.2710022,62.0894861 C24.1762361,64.9528354 25.3404232,67.2838719 26.7312249,69.0176139 C28.1173719,70.7452486 29.8903563,72.2146664 32.0009354,73.3855591 C34.1597773,74.5852783 36.2762361,75.4625317 38.2924944,75.9936231 C40.3513808,76.5344861 42.701559,76.9456299 45.2771269,77.2153285 L48.0143875,77.5021276 L45.9687305,79.3382281 C44.3344098,80.8047144 43.3140312,82.9713422 42.9362584,85.7772829 L42.8478174,86.4334518 L42.2483296,86.717808 C41.1826281,87.2232486 40.0306904,87.6065432 38.8251002,87.8574313 C37.6246548,88.1051436 36.1997996,88.2307098 34.5880178,88.2307098 C32.8108686,88.2307098 31.042049,87.6580888 29.3308018,86.5289701 C27.6629176,85.4286779 26.2272829,83.824655 25.0643207,81.7613628 C24.2754566,80.4419404 23.2599777,79.3567943 22.0453229,78.5354838 C20.5361915,77.5153194 19.5902895,77.1659815 19.0567038,77.0540957 L17.7830067,76.8642806 C17.4613363,76.8664792 17.2119376,76.8816253 17.0206013,76.9011687 C17.0311359,76.9138719 17.0419154,76.9263308 17.0526949,76.939034 C17.269265,77.1904107 17.5020045,77.4056322 17.7438085,77.5776139 L18.1428953,77.8624587 C19.3092873,78.4206664 20.4502004,79.4176231 21.5357461,80.8276779 C22.5916481,82.1974244 23.3841871,83.4806916 23.8905791,84.6408354 L24.6257906,86.337445 C25.1564365,87.8835705 26.025902,89.0974587 27.2839198,90.0487326 C28.5683964,91.01955 29.9692428,91.6459153 31.4467706,91.9104838 C33.0556125,92.2014358 34.6232962,92.3590043 36.1084187,92.3795249 C37.5942762,92.4034655 38.8199555,92.3260249 39.7528731,92.1552646 L42.8071492,91.6283263 L42.8071492,93.0794221 C42.8071492,94.8864518 42.8191537,96.9705089 42.8426726,99.2734518 C42.8688864,101.966285 42.877951,102.920002 42.877951,103.052164 C42.877951,104.224278 42.4269265,105.257879 41.5738753,106.041813 C40.9141203,106.648146 40.0387751,106.955466 38.9720935,106.955466" id="Fill-1" fill="#FFFFFF" mask="url(#mask-3)"></path>
                    </g>
                </g>
            </g>
        </g>
    </g>
</svg>