<?xml version="1.0" encoding="UTF-8" standalone="no"?>
<svg width="110px" height="110px" viewBox="0 0 110 110" version="1.1" xmlns="http://www.w3.org/2000/svg" xmlns:xlink="http://www.w3.org/1999/xlink">
    <!-- Generator: Sketch 41.1 (35376) - http://www.bohemiancoding.com/sketch -->
    <title>ICON</title>
    <desc>Created with Sketch.</desc>
    <defs>
        <circle id="path-1" cx="55" cy="55" r="55"></circle>
        <mask id="mask-2" maskContentUnits="userSpaceOnUse" maskUnits="objectBoundingBox" x="0" y="0" width="110" height="110" fill="white">
            <use xlink:href="#path-1"></use>
        </mask>
        <mask id="mask-4" maskContentUnits="userSpaceOnUse" maskUnits="objectBoundingBox" x="0" y="0" width="110" height="110" fill="white">
            <use xlink:href="#path-1"></use>
        </mask>
    </defs>
    <g id="INDEX" stroke="none" stroke-width="1" fill="none" fill-rule="evenodd">
        <g id="SPRYKER-2.0---INDEX-REWORK" transform="translate(-664.000000, -3169.000000)">
            <g id="HOVERS">
                <g id="HOVER-INFORMATION" transform="translate(641.000000, 3151.000000)">
                    <g id="ICON" transform="translate(23.000000, 18.000000)">
                        <mask id="mask-3" fill="white">
                            <use xlink:href="#path-1"></use>
                        </mask>
                        <g id="Mask" stroke="#E2694A" mask="url(#mask-2)" stroke-width="4" fill="#E2694A">
                            <use mask="url(#mask-4)" xlink:href="#path-1"></use>
                        </g>
                        <g id="Page-1" mask="url(#mask-3)">
                            <g transform="translate(26.000000, 28.000000)">
                                <g id="Group-3" stroke-width="1" fill="none" transform="translate(0.000000, 0.028272)">
                                    <path d="M57.0921788,49.225467 C57.0921788,50.7583885 55.8530383,52.0051948 54.3297145,52.0051948 L4.6040931,52.0051948 C3.08090976,52.0051948 1.84162881,50.7583885 1.84162881,49.225467 L1.84162881,21.4260691 C1.84162881,19.8931476 3.08090976,18.6460586 4.6040931,18.6460586 L30.0064026,18.6460586 L28.8158669,19.8440953 C28.4561074,20.2059801 28.4561074,20.7927707 28.8158669,21.1546555 C28.995536,21.3355979 29.231255,21.4260691 29.466974,21.4260691 C29.7026931,21.4260691 29.9382717,21.3355979 30.1180812,21.1546555 L32.6109717,18.6460586 L54.3297145,18.6460586 C55.8530383,18.6460586 57.0921788,19.8931476 57.0921788,21.4260691 L57.0921788,49.225467 Z M54.3297145,16.7928126 L34.4526145,16.7928126 L49.4558931,1.69514764 C49.8155121,1.33326283 49.8155121,0.746472251 49.4558931,0.384587435 C49.0961336,0.0227026178 48.5132979,0.0227026178 48.1535383,0.384587435 L31.8480455,16.7928126 L27.0859026,16.7928126 L10.7804098,0.384587435 C10.4209312,0.0227026178 9.83781452,0.0227026178 9.47833595,0.384587435 C9.11843595,0.746472251 9.11843595,1.33312147 9.47833595,1.69500628 L24.4813336,16.7928126 L4.6040931,16.7928126 C2.06540738,16.7928126 -1.40476191e-05,18.8712471 -1.40476191e-05,21.4260691 L-1.40476191e-05,49.225467 C-1.40476191e-05,51.7801476 2.06540738,53.8585822 4.6040931,53.8585822 L54.3297145,53.8585822 C56.8684002,53.8585822 58.9338217,51.7801476 58.9338217,49.225467 L58.9338217,21.4260691 C58.9338217,18.8712471 56.8684002,16.7928126 54.3297145,16.7928126 L54.3297145,16.7928126 Z" id="Fill-1" fill="#FFFFFF"></path>
                                </g>
                                <path d="M13.8126164,31.6473644 C13.8126164,30.1144429 15.0517569,28.8673539 16.5752212,28.8673539 C18.098545,28.8673539 19.3376855,30.1144429 19.3376855,31.6473644 L19.3376855,32.5739874 C19.3376855,34.1067675 18.098545,35.3539979 16.5752212,35.3539979 C15.0517569,35.3539979 13.8126164,34.1067675 13.8126164,32.5739874 L13.8126164,31.6473644 Z M16.5752212,37.207244 C19.1139069,37.207244 21.1793283,35.1288094 21.1793283,32.5739874 L21.1793283,31.6473644 C21.1793283,29.0926838 19.1139069,27.0141079 16.5752212,27.0141079 C14.036395,27.0141079 11.9709736,29.0926838 11.9709736,31.6473644 L11.9709736,32.5739874 C11.9709736,35.1288094 14.036395,37.207244 16.5752212,37.207244 L16.5752212,37.207244 Z" id="Fill-4" fill="#FFFFFF"></path>
                                <path d="M22.1001638,42.7671377 L11.0501662,42.7671377 L11.0501662,40.9137503 C11.0501662,40.2878026 11.7640662,39.0908969 12.883521,39.0908969 L13.1790829,39.0908969 C14.0504567,40.2559963 15.2643114,40.9137503 16.5752352,40.9137503 C17.8860186,40.9137503 19.1000138,40.2559963 19.9711067,39.0908969 L20.2666686,39.0908969 C21.3861233,39.0908969 22.1001638,40.2878026 22.1001638,40.9137503 L22.1001638,42.7671377 Z M20.266809,37.2376508 L19.48534,37.2376508 C19.1654757,37.2376508 18.8686495,37.4044571 18.7010614,37.6785565 C18.1638805,38.5569754 17.3891543,39.0605042 16.5752352,39.0605042 C15.7611757,39.0605042 14.986309,38.5569754 14.4492686,37.6786979 C14.2816805,37.4044571 13.9847138,37.2377921 13.66499,37.2377921 L12.883521,37.2377921 C10.8137448,37.2376508 9.20852333,39.2137398 9.20852333,40.9137503 L9.20852333,42.9209387 C9.20852333,43.8580225 9.96597095,44.6202424 10.8971876,44.6202424 L22.2567948,44.6202424 C23.1859043,44.6202424 23.9418067,43.8597188 23.9418067,42.9247555 L23.9418067,40.9137503 C23.9418067,40.1072843 23.568421,39.2044099 22.9428805,38.4991586 C22.2215352,37.6856246 21.2712138,37.2376508 20.266809,37.2376508 L20.266809,37.2376508 Z" id="Fill-6" fill="#FFFFFF"></path>
                                <path d="M25.7835479,45.5471482 C25.7835479,46.0578864 25.3705479,46.4737712 24.8627264,46.4737712 L8.28751929,46.4737712 C7.77983833,46.4737712 7.36669786,46.0578864 7.36669786,45.5471482 L7.36669786,25.1608759 C7.36669786,24.649855 7.77983833,24.2342529 8.28751929,24.2342529 L24.8627264,24.2342529 C25.3705479,24.2342529 25.7835479,24.649855 25.7835479,25.1608759 L25.7835479,45.5471482 Z M24.8627264,22.3810068 L8.28751929,22.3810068 C6.76433595,22.3810068 5.525055,23.6279545 5.525055,25.1608759 L5.525055,45.5471482 C5.525055,47.0797869 6.76433595,48.3268759 8.28751929,48.3268759 L24.8627264,48.3268759 C26.3859098,48.3268759 27.6251907,47.0797869 27.6251907,45.5471482 L27.6251907,25.1608759 C27.6251907,23.6279545 26.3859098,22.3810068 24.8627264,22.3810068 L24.8627264,22.3810068 Z" id="Fill-8" fill="#FFFFFF"></path>
                                <path d="M30.3878517,26.0875414 L46.9629183,26.0875414 C47.4714421,26.0875414 47.8838802,25.6725047 47.8838802,25.1609183 C47.8838802,24.6491906 47.4714421,24.2342953 46.9629183,24.2342953 L30.3878517,24.2342953 C29.8793279,24.2342953 29.4668898,24.6491906 29.4668898,25.1609183 C29.4668898,25.6725047 29.8793279,26.0875414 30.3878517,26.0875414" id="Fill-10" fill="#FFFFFF"></path>
                                <path d="M52.4880295,27.9407733 L30.3878938,27.9407733 C29.87937,27.9407733 29.4669319,28.3558099 29.4669319,28.8673963 C29.4669319,29.3792654 29.87937,29.7940194 30.3878938,29.7940194 L52.4880295,29.7940194 C52.9965533,29.7940194 53.408851,29.3792654 53.408851,28.8673963 C53.408851,28.3558099 52.9965533,27.9407733 52.4880295,27.9407733" id="Fill-12" fill="#FFFFFF"></path>
                                <path d="M34.0712357,39.0605466 L42.358769,39.0605466 C42.8672929,39.0605466 43.2795905,38.6455099 43.2795905,38.1339236 C43.2795905,37.6220545 42.8672929,37.2073005 42.358769,37.2073005 L34.0712357,37.2073005 C33.5627119,37.2073005 33.1502738,37.6220545 33.1502738,38.1339236 C33.1502738,38.6455099 33.5627119,39.0605466 34.0712357,39.0605466" id="Fill-14" fill="#FFFFFF"></path>
                                <path d="M30.3878517,37.207244 C30.1449683,37.207244 29.9078445,37.3056314 29.7363231,37.4782335 C29.5648017,37.6508356 29.4668898,37.8894534 29.4668898,38.1340084 C29.4668898,38.3782806 29.5648017,38.6168984 29.7363231,38.7893592 C29.9078445,38.9619613 30.1449683,39.0604901 30.3878517,39.0604901 C30.630735,39.0604901 30.8678588,38.9619613 31.0393802,38.7893592 C31.2107612,38.6168984 31.3086731,38.3782806 31.3086731,38.1340084 C31.3086731,37.8894534 31.2107612,37.6508356 31.0393802,37.4782335 C30.8678588,37.3056314 30.630735,37.207244 30.3878517,37.207244" id="Fill-16" fill="#FFFFFF"></path>
                                <path d="M48.8046455,40.9137079 L34.0712217,40.9137079 C33.5626979,40.9137079 33.1502598,41.3287445 33.1502598,41.8406136 C33.1502598,42.3522 33.5626979,42.7670953 34.0712217,42.7670953 L48.8046455,42.7670953 C49.3131693,42.7670953 49.7256074,42.3522 49.7256074,41.8406136 C49.7256074,41.3287445 49.3131693,40.9137079 48.8046455,40.9137079" id="Fill-18" fill="#FFFFFF"></path>
                                <path d="M30.3878517,40.9137079 C30.1449683,40.9137079 29.9078445,41.0122366 29.7363231,41.1848387 C29.5648017,41.3574408 29.4668898,41.5959173 29.4668898,41.8406136 C29.4668898,42.0848859 29.5648017,42.3235037 29.7363231,42.4959644 C29.9078445,42.6685665 30.1449683,42.7670953 30.3878517,42.7670953 C30.630735,42.7670953 30.8678588,42.6685665 31.0393802,42.4959644 C31.2107612,42.3235037 31.3086731,42.0848859 31.3086731,41.8406136 C31.3086731,41.5959173 31.2107612,41.3574408 31.0393802,41.1848387 C30.8678588,41.0122366 30.630735,40.9137079 30.3878517,40.9137079" id="Fill-20" fill="#FFFFFF"></path>
                                <path d="M46.0421671,44.620299 L34.0712076,44.620299 C33.5626838,44.620299 33.1503862,45.0353356 33.1503862,45.5472047 C33.1503862,46.0587911 33.5626838,46.4736864 34.0712076,46.4736864 L46.0421671,46.4736864 C46.550691,46.4736864 46.9629886,46.0587911 46.9629886,45.5472047 C46.9629886,45.0353356 46.550691,44.620299 46.0421671,44.620299" id="Fill-22" fill="#FFFFFF"></path>
                                <path d="M30.3878517,44.620299 C30.1449683,44.620299 29.9078445,44.7188277 29.7363231,44.8914298 C29.5648017,45.0640319 29.4668898,45.3025084 29.4668898,45.5472047 C29.4668898,45.791477 29.5648017,46.0300948 29.7363231,46.2025555 C29.9078445,46.3751576 30.1449683,46.4736864 30.3878517,46.4736864 C30.630735,46.4736864 30.8678588,46.3751576 31.0393802,46.2025555 C31.2107612,46.0300948 31.3086731,45.791477 31.3086731,45.5472047 C31.3086731,45.3025084 31.2107612,45.0640319 31.0393802,44.8914298 C30.8678588,44.7188277 30.630735,44.620299 30.3878517,44.620299" id="Fill-24" fill="#FFFFFF"></path>
                            </g>
                        </g>
                    </g>
                </g>
            </g>
        </g>
    </g>
</svg>