<?xml version="1.0" encoding="UTF-8" standalone="no"?>
<svg width="110px" height="110px" viewBox="0 0 110 110" version="1.1" xmlns="http://www.w3.org/2000/svg" xmlns:xlink="http://www.w3.org/1999/xlink">
    <!-- Generator: Sketch 41.1 (35376) - http://www.bohemiancoding.com/sketch -->
    <title>ICON</title>
    <desc>Created with Sketch.</desc>
    <defs>
        <circle id="path-1" cx="55" cy="55" r="55"></circle>
        <mask id="mask-2" maskContentUnits="userSpaceOnUse" maskUnits="objectBoundingBox" x="0" y="0" width="110" height="110" fill="white">
            <use xlink:href="#path-1"></use>
        </mask>
        <mask id="mask-4" maskContentUnits="userSpaceOnUse" maskUnits="objectBoundingBox" x="0" y="0" width="110" height="110" fill="white">
            <use xlink:href="#path-1"></use>
        </mask>
        <polygon id="path-5" points="0 60.9318833 60.9315929 60.9318833 60.9315929 0 0 0"></polygon>
    </defs>
    <g id="Symbols" stroke="none" stroke-width="1" fill="none" fill-rule="evenodd">
        <g id="FURTHER-INFO" transform="translate(-86.000000, -97.000000)">
            <g transform="translate(0.000000, 13.000000)" id="2---DOCU">
                <g transform="translate(67.000000, 84.000000)">
                    <g id="ICON" transform="translate(19.000000, 0.000000)">
                        <mask id="mask-3" fill="white">
                            <use xlink:href="#path-1"></use>
                        </mask>
                        <g id="Mask" stroke="#E2694A" mask="url(#mask-2)" stroke-width="4" fill="#E2694A">
                            <use mask="url(#mask-4)" xlink:href="#path-1"></use>
                        </g>
                        <g id="Page-1" mask="url(#mask-3)">
                            <g transform="translate(25.000000, 25.000000)">
                                <path d="M51.4113083,36.178156 L49.5070917,36.178156 C48.9813298,36.178156 48.5549107,36.604575 48.5549107,37.1303369 C48.5549107,37.6560988 48.9813298,38.0823726 49.5070917,38.0823726 L51.4113083,38.0823726 C51.9370702,38.0823726 52.3634893,37.6560988 52.3634893,37.1303369 C52.3634893,36.604575 51.9370702,36.178156 51.4113083,36.178156 L51.4113083,36.178156 Z" id="Fill-1" stroke="none" fill="#FFFFFF" fill-rule="evenodd"></path>
                                <path d="M39.9864295,49.5071498 L20.9451343,49.5071498 C20.4202438,49.5071498 19.9932438,49.0800045 19.9932438,48.5548236 C19.9932438,48.0300783 20.4202438,47.6029331 20.9451343,47.6029331 L39.9864295,47.6029331 C40.51132,47.6029331 40.9384652,48.0300783 40.9384652,48.5548236 C40.9384652,49.0800045 40.51132,49.5071498 39.9864295,49.5071498 M39.9864295,45.6988617 L20.9451343,45.6988617 C19.3704629,45.6988617 18.0890271,46.9802974 18.0890271,48.5548236 C18.0890271,50.1297855 19.3704629,51.411076 20.9451343,51.411076 L39.9864295,51.411076 C41.5612462,51.411076 42.8425367,50.1297855 42.8425367,48.5548236 C42.8425367,46.9802974 41.5612462,45.6988617 39.9864295,45.6988617" id="Fill-3" stroke="none" fill="#FFFFFF" fill-rule="evenodd"></path>
                                <mask id="mask-6" fill="white">
                                    <use xlink:href="#path-5"></use>
                                </mask>
                                <g id="Clip-6" stroke="none" fill="none"></g>
                                <path d="M13.3287905,11.424719 L47.6028024,11.424719 L47.6028024,9.52064762 L13.3287905,9.52064762 L13.3287905,11.424719 Z M15.2330071,7.61643095 L45.6988762,7.61643095 L45.6988762,5.71235952 L15.2330071,5.71235952 L15.2330071,7.61643095 Z M17.1370786,3.8082881 L43.7946595,3.8082881 L43.7946595,1.90421667 L17.1370786,1.90421667 L17.1370786,3.8082881 Z M10.4725381,30.465869 C10.9984452,30.465869 11.424719,30.0395952 11.424719,29.5138333 L11.424719,13.3287905 L49.507019,13.3287905 L49.507019,29.5138333 C49.507019,30.0395952 49.9332929,30.465869 50.4590548,30.465869 C50.9848167,30.465869 51.4112357,30.0395952 51.4112357,29.5138333 L51.4112357,13.3287905 C51.4112357,12.2790095 50.5569452,11.424719 49.507019,11.424719 L49.507019,9.52064762 C49.507019,8.47072143 48.6527286,7.61657619 47.6029476,7.61657619 L47.6029476,5.71235952 C47.6029476,4.66243333 46.7486571,3.8082881 45.698731,3.8082881 L45.698731,1.90421667 C45.698731,0.854290476 44.8445857,0 43.7946595,0 L17.1370786,0 C16.0871524,0 15.2330071,0.854290476 15.2330071,1.90421667 L15.2330071,3.8082881 C14.1829357,3.8082881 13.3287905,4.66243333 13.3287905,5.71235952 L13.3287905,7.61657619 C12.2788643,7.61657619 11.424719,8.47072143 11.424719,9.52064762 L11.424719,11.424719 C10.3749381,11.424719 9.52064762,12.2790095 9.52064762,13.3287905 L9.52064762,29.5138333 C9.52064762,30.0395952 9.94677619,30.465869 10.4725381,30.465869 L10.4725381,30.465869 Z" id="Fill-5" stroke="none" fill="#FFFFFF" fill-rule="evenodd" mask="url(#mask-6)"></path>
                                <path d="M59.0275069,58.075631 C59.0275069,58.6003762 58.6005069,59.0276667 58.0754712,59.0276667 L2.85609262,59.0276667 C2.33120214,59.0276667 1.9040569,58.6003762 1.9040569,58.075631 L1.9040569,39.0343357 C1.9040569,38.5094452 2.33120214,38.0824452 2.85609262,38.0824452 L45.6987164,38.0824452 C46.2244783,38.0824452 46.6506069,37.6560262 46.6506069,37.1302643 C46.6506069,36.6045024 46.2244783,36.1780833 45.6987164,36.1780833 L2.85609262,36.1780833 C2.52248071,36.1780833 2.20208548,36.2363238 1.9040569,36.3419119 L1.9040569,35.2261929 C1.9040569,35.2193667 1.90492833,35.212831 1.90521881,35.2060048 L1.98480929,34.8440714 C2.13237119,34.5090071 2.467145,34.2741571 2.85623786,34.2741571 L58.0756164,34.2741571 C58.4647093,34.2741571 58.7996283,34.5090071 58.947045,34.8440714 L59.0266355,35.2060048 C59.0267807,35.212831 59.0277974,35.2193667 59.0277974,35.2261929 L59.0277974,36.3419119 C58.7297688,36.2363238 58.4093736,36.1780833 58.0756164,36.1780833 L55.2195093,36.1780833 C54.6937474,36.1780833 54.2676188,36.6045024 54.2676188,37.1302643 C54.2676188,37.6560262 54.6937474,38.0824452 55.2195093,38.0824452 L58.0756164,38.0824452 C58.6007974,38.0824452 59.0277974,38.5094452 59.0277974,39.0343357 L59.0277974,58.075631 L59.0275069,58.075631 Z M60.9186521,34.9572119 C60.8974474,34.7300595 60.8490831,34.51075 60.7774807,34.3020429 L57.1067331,17.6127333 C56.873626,16.2319548 55.6942926,15.2330071 54.2905664,15.2330071 L54.2673283,15.2330071 C53.7414212,15.2330071 53.3151474,15.659281 53.3151474,16.1850429 C53.3151474,16.7108048 53.7414212,17.1370786 54.2673283,17.1370786 L54.2905664,17.1370786 C54.7620093,17.1370786 55.1574926,17.4750476 55.2309831,17.940681 C55.2340331,17.9594167 55.2373736,17.9780071 55.2415855,17.9965976 L58.4070498,32.3898381 C58.2982664,32.3773476 58.1877402,32.3699405 58.0754712,32.3699405 L2.85609262,32.3699405 C2.74396881,32.3699405 2.63344262,32.3773476 2.52451405,32.3898381 L5.69012357,17.9965976 C5.694045,17.9780071 5.69767595,17.9594167 5.70058071,17.940681 C5.77421643,17.4750476 6.16969976,17.1370786 6.64114262,17.1370786 L6.66438071,17.1370786 C7.19014262,17.1370786 7.61641643,16.7108048 7.61641643,16.1850429 C7.61641643,15.659281 7.19014262,15.2330071 6.66438071,15.2330071 L6.64114262,15.2330071 C5.23741643,15.2330071 4.05793786,16.2319548 3.82483071,17.6127333 L0.154373571,34.3020429 C0.0826259524,34.51075 0.0342616667,34.7300595 0.0130569048,34.9572119 C0.0025997619,35.0227143 -0.00103119048,35.0874905 0.00187357143,35.15125 C0.00114738095,35.176231 -1.45238096e-05,35.2010667 -1.45238096e-05,35.2261929 L-1.45238096e-05,39.0343357 L-1.45238096e-05,58.075631 C-1.45238096e-05,59.6505929 1.28113071,60.9318833 2.85609262,60.9318833 L58.0754712,60.9318833 C59.6504331,60.9318833 60.9315783,59.6505929 60.9315783,58.075631 L60.9315783,39.0343357 L60.9315783,35.2261929 C60.9315783,35.2010667 60.9305617,35.176231 60.9298355,35.1513952 C60.9327402,35.0874905 60.9291093,35.0227143 60.9186521,34.9572119 L60.9186521,34.9572119 Z" id="Fill-7" stroke="none" fill="#FFFFFF" fill-rule="evenodd" mask="url(#mask-6)"></path>
                                <path d="M27.6097038,22.8494381 C28.1354657,22.8494381 28.5617395,22.4231643 28.5617395,21.8974024 C28.5617395,21.3716405 28.1354657,20.9453667 27.6097038,20.9453667 L19.9932729,20.9453667 C19.4673657,20.9453667 19.0412371,21.3716405 19.0412371,21.8974024 C19.0412371,22.4231643 19.4673657,22.8494381 19.9932729,22.8494381 L27.6097038,22.8494381 Z" id="Fill-8" stroke="none" fill="#FFFFFF" fill-rule="evenodd" mask="url(#mask-6)"></path>
                                <path d="M34.27407,18.0891288 C34.27407,17.5633669 33.8477962,17.1370931 33.3220343,17.1370931 L19.9932438,17.1370931 C19.4674819,17.1370931 19.0412081,17.5633669 19.0412081,18.0891288 C19.0412081,18.6148907 19.4674819,19.0411645 19.9932438,19.0411645 L33.3220343,19.0411645 C33.8477962,19.0411645 34.27407,18.6148907 34.27407,18.0891288" id="Fill-9" stroke="none" fill="#FFFFFF" fill-rule="evenodd" mask="url(#mask-6)"></path>
                                <path d="M15.2329781,19.0411936 L16.1850138,19.0411936 C16.7107757,19.0411936 17.1370495,18.6149198 17.1370495,18.0891579 C17.1370495,17.563396 16.7107757,17.1371221 16.1850138,17.1371221 L15.2329781,17.1371221 C14.7072162,17.1371221 14.2807971,17.563396 14.2807971,18.0891579 C14.2807971,18.6149198 14.7072162,19.0411936 15.2329781,19.0411936" id="Fill-10" stroke="none" fill="#FFFFFF" fill-rule="evenodd" mask="url(#mask-6)"></path>
                                <path d="M15.2329781,22.8494381 L16.1850138,22.8494381 C16.7107757,22.8494381 17.1370495,22.4231643 17.1370495,21.8974024 C17.1370495,21.3716405 16.7107757,20.9453667 16.1850138,20.9453667 L15.2329781,20.9453667 C14.7072162,20.9453667 14.2807971,21.3716405 14.2807971,21.8974024 C14.2807971,22.4231643 14.7072162,22.8494381 15.2329781,22.8494381" id="Fill-11" stroke="none" fill="#FFFFFF" fill-rule="evenodd" mask="url(#mask-6)"></path>
                                <path d="M15.2329781,28.5617976 C14.7072162,28.5617976 14.2807971,28.9880714 14.2807971,29.5138333 C14.2807971,30.0395952 14.7072162,30.465869 15.2329781,30.465869 L23.8014448,30.465869 C24.3272067,30.465869 24.7534805,30.0395952 24.7534805,29.5138333 C24.7534805,28.9880714 24.3272067,28.5617976 23.8014448,28.5617976 L15.2329781,28.5617976 Z" id="Fill-12" stroke="none" fill="#FFFFFF" fill-rule="evenodd" mask="url(#mask-6)"></path>
                                <path d="M31.4179483,25.7056179 C31.4179483,25.179856 30.9915293,24.7535821 30.4657674,24.7535821 L15.2329055,24.7535821 C14.7071436,24.7535821 14.2808698,25.179856 14.2808698,25.7056179 C14.2808698,26.2313798 14.7071436,26.6576536 15.2329055,26.6576536 L30.4657674,26.6576536 C30.9915293,26.6576536 31.4179483,26.2313798 31.4179483,25.7056179" id="Fill-13" stroke="none" fill="#FFFFFF" fill-rule="evenodd" mask="url(#mask-6)"></path>
                                <path d="M45.6988036,24.7535531 L40.9384798,24.7535531 C40.4127179,24.7535531 39.986444,25.1798269 39.986444,25.7055888 C39.986444,26.2313507 40.4127179,26.6576245 40.9384798,26.6576245 L45.6988036,26.6576245 C46.2245655,26.6576245 46.6508393,26.2313507 46.6508393,25.7055888 C46.6508393,25.1798269 46.2245655,24.7535531 45.6988036,24.7535531" id="Fill-14" stroke="none" fill="#FFFFFF" fill-rule="evenodd" mask="url(#mask-6)"></path>
                                <path d="M34.27407,30.4658545 L45.698789,30.4658545 C46.224551,30.4658545 46.6508248,30.0395807 46.6508248,29.5138188 C46.6508248,28.9880569 46.224551,28.5617831 45.698789,28.5617831 L34.27407,28.5617831 C33.7483081,28.5617831 33.3220343,28.9880569 33.3220343,29.5138188 C33.3220343,30.0395807 33.7483081,30.4658545 34.27407,30.4658545" id="Fill-15" stroke="none" fill="#FFFFFF" fill-rule="evenodd" mask="url(#mask-6)"></path>
                            </g>
                        </g>
                    </g>
                </g>
            </g>
        </g>
    </g>
</svg>