<?xml version="1.0" encoding="UTF-8" standalone="no"?>
<svg width="110px" height="110px" viewBox="0 0 110 110" version="1.1" xmlns="http://www.w3.org/2000/svg" xmlns:xlink="http://www.w3.org/1999/xlink">
    <!-- Generator: Sketch 41.1 (35376) - http://www.bohemiancoding.com/sketch -->
    <title>ICON</title>
    <desc>Created with Sketch.</desc>
    <defs>
        <circle id="path-1" cx="55" cy="55" r="55"></circle>
        <mask id="mask-2" maskContentUnits="userSpaceOnUse" maskUnits="objectBoundingBox" x="0" y="0" width="110" height="110" fill="white">
            <use xlink:href="#path-1"></use>
        </mask>
        <mask id="mask-4" maskContentUnits="userSpaceOnUse" maskUnits="objectBoundingBox" x="0" y="0" width="110" height="110" fill="white">
            <use xlink:href="#path-1"></use>
        </mask>
        <polygon id="path-5" points="9.94144455 0.0712969121 6.06635072e-05 0.0712969121 6.06635072e-05 63.8479506 9.94144455 63.8479506 9.94144455 0.0712969121"></polygon>
    </defs>
    <g id="Symbols" stroke="none" stroke-width="1" fill="none" fill-rule="evenodd">
        <g id="FURTHER-INFO" transform="translate(-291.000000, -97.000000)">
            <g transform="translate(0.000000, 13.000000)" id="3---INSTALL">
                <g transform="translate(254.000000, 84.000000)">
                    <g id="ICON" transform="translate(37.000000, 0.000000)">
                        <mask id="mask-3" fill="white">
                            <use xlink:href="#path-1"></use>
                        </mask>
                        <g id="Mask" stroke="#E2694A" mask="url(#mask-2)" stroke-width="4" fill="#E2694A">
                            <use mask="url(#mask-4)" xlink:href="#path-1"></use>
                        </g>
                        <g id="Page-1" mask="url(#mask-3)">
                            <g transform="translate(41.000000, 23.000000)">
                                <g id="Group-3" stroke-width="1" fill="none" transform="translate(0.000000, 0.080722)">
                                    <mask id="mask-6" fill="white">
                                        <use xlink:href="#path-5"></use>
                                    </mask>
                                    <g id="Clip-2"></g>
                                    <path d="M4.97067678,59.7001121 L4.03039242,56.8722546 L5.9111128,56.8722546 L4.97067678,59.7001121 Z M4.97067678,2.06438765 C6.58735924,2.06438765 7.9531981,2.97710974 7.9531981,4.05735677 L7.9531981,5.05384133 L1.98830711,5.05384133 L1.98830711,4.05735677 C1.98830711,2.97710974 3.35414597,2.06438765 4.97067678,2.06438765 L4.97067678,2.06438765 Z M5.96495166,49.8970147 L5.96495166,46.907105 C5.96495166,46.3569482 5.51968152,45.9106204 4.97067678,45.9106204 C4.42167204,45.9106204 3.97655355,46.3569482 3.97655355,46.907105 L3.97655355,49.8970147 L1.98830711,49.8970147 L1.98830711,7.04696247 L3.97655355,7.04696247 L3.97655355,42.9211667 C3.97655355,43.4714755 4.42167204,43.9178033 4.97067678,43.9178033 C5.51968152,43.9178033 5.96495166,43.4714755 5.96495166,42.9211667 L5.96495166,7.04696247 L7.9531981,7.04696247 L7.9531981,49.8970147 L5.96495166,49.8970147 Z M6.57386161,54.8791335 L3.36779526,54.8791335 L2.37367204,51.8901359 L7.56798483,51.8901359 L6.57386161,54.8791335 Z M4.97067678,0.0712665083 C2.22989953,0.0712665083 6.06635072e-05,1.85946603 6.06635072e-05,4.05735677 L6.06635072e-05,50.8930432 C6.06635072e-05,51.0002166 0.017349763,51.1066299 0.0511696682,51.2084827 L4.02766256,63.1666014 C4.16309384,63.5734043 4.54299905,63.8479506 4.97067678,63.8479506 C5.39850616,63.8479506 5.77841137,63.5734043 5.91384265,63.1666014 L9.89033555,51.2084827 C9.92415545,51.1066299 9.94144455,51.0002166 9.94144455,50.8930432 L9.94144455,4.05735677 C9.94144455,1.85946603 7.71160569,0.0712665083 4.97067678,0.0712665083 L4.97067678,0.0712665083 Z" id="Fill-1" fill="#FFFFFF" mask="url(#mask-6)"></path>
                                </g>
                                <path d="M28.9352796,44.9949188 L20.9821422,44.9949188 C20.4338957,44.9949188 19.988019,44.5478309 19.988019,43.9984342 L19.988019,38.0192228 L29.9294028,38.0192228 L29.9294028,43.9984342 C29.9294028,44.5478309 29.4833744,44.9949188 28.9352796,44.9949188 L28.9352796,44.9949188 Z M20.9821422,19.0857121 L28.9352796,19.0857121 C29.4833744,19.0857121 29.9294028,19.5328 29.9294028,20.0821967 L29.9294028,23.0718024 L19.988019,23.0718024 L19.988019,20.0821967 C19.988019,19.5328 20.4338957,19.0857121 20.9821422,19.0857121 L20.9821422,19.0857121 Z M19.988019,36.0264057 L29.9294028,36.0264057 L29.9294028,25.0647715 L19.988019,25.0647715 L19.988019,36.0264057 Z M28.9352796,17.092743 L20.9821422,17.092743 C19.3375545,17.092743 17.9997725,18.4338546 17.9997725,20.0821967 L17.9997725,43.9984342 C17.9997725,45.6466242 19.3375545,46.9877359 20.9821422,46.9877359 L28.9352796,46.9877359 C30.5798673,46.9877359 31.9176493,45.6466242 31.9176493,43.9984342 L31.9176493,20.0821967 C31.9176493,18.4338546 30.5798673,17.092743 28.9352796,17.092743 L28.9352796,17.092743 Z" id="Fill-4" fill="#FFFFFF"></path>
                                <path d="M24.9586806,27.0577862 C24.4096758,27.0577862 23.9645573,27.503962 23.9645573,28.0542708 L23.9645573,33.0368456 C23.9645573,33.5871544 24.4096758,34.0331781 24.9586806,34.0331781 C25.5076853,34.0331781 25.9529555,33.5871544 25.9529555,33.0368456 L25.9529555,28.0542708 C25.9529555,27.503962 25.5076853,27.0577862 24.9586806,27.0577862" id="Fill-6" fill="#FFFFFF"></path>
                            </g>
                        </g>
                    </g>
                </g>
            </g>
        </g>
    </g>
</svg>