<?xml version="1.0" encoding="UTF-8"?>
<svg width="32px" height="40px" viewBox="0 0 32 40" version="1.1" xmlns="http://www.w3.org/2000/svg" xmlns:xlink="http://www.w3.org/1999/xlink">
    <!-- Generator: Sketch 42 (36781) - http://www.bohemiancoding.com/sketch -->
    <title>Page 1</title>
    <style>
        #Page-1 * {
            fill: #fff;
        }
    </style>
    <desc>Created with Sketch.</desc>
    <defs>
        <polygon id="path-1" points="2.85270198e-05 40 31.1963016 40 31.1963016 0.0196763006 2.85270198e-05 0.0196763006"></polygon>
    </defs>
    <g id="SPRYKER---DOCUMENTATION" stroke="none" stroke-width="1" fill="none" fill-rule="evenodd">
        <g id="SPRYKER-2.0---DOCUMENTATION" transform="translate(-955.000000, -539.000000)">
            <g id="ENABLEMENT" transform="translate(148.000000, 459.000000)">
                <g id="1" transform="translate(783.000000, 51.000000)">
                    <g id="Page-1" transform="translate(24.000000, 29.000000)">
                        <g id="Group-3">
                            <mask id="mask-2" fill="white">
                                <use xlink:href="#path-1"></use>
                            </mask>
                            <g id="Clip-2"></g>
                            <path d="M28.1173424,38.7802543 L3.14467886,38.8273064 C2.63458999,38.8267283 2.15703789,38.6290405 1.793826,38.2666127 C1.43061411,37.9040694 1.22997069,37.4240694 1.22916304,36.915052 L1.17043532,5.63759538 C1.16951229,5.12869364 1.36819427,4.64788439 1.73002162,4.28395376 C2.09184897,3.92002312 2.57078561,3.71921387 3.07879767,3.71817341 L8.80873063,3.70742197 C8.76211767,3.92349133 8.73754202,4.14591908 8.73800353,4.37227746 L8.74261868,6.87447399 C8.74331095,7.1980578 9.00522041,7.45990751 9.32793441,7.45990751 L9.3290882,7.45990751 L21.8154777,7.43643931 C22.1386532,7.43586127 22.4002165,7.17273988 22.3995242,6.84892486 L22.3947937,4.34661272 C22.3944476,4.11852023 22.3684874,3.8963237 22.3209514,3.68210405 L28.0515766,3.6713526 L28.0552687,3.6713526 C29.1077525,3.6713526 29.9652464,4.52834682 29.9672078,5.58349133 L30.0258202,36.8610636 C30.0277816,37.9172486 29.1716723,38.7781734 28.1173424,38.7802543 L28.1173424,38.7802543 Z M10.4660291,3.01435838 C10.8264719,2.65181503 11.3062162,2.45169942 11.8169973,2.45077457 L13.8046248,2.44695954 C14.0523427,2.44649711 14.2728312,2.28984971 14.3554423,2.05586127 C14.5370483,1.54048555 15.0215231,1.19354913 15.562995,1.19262428 C16.1008901,1.19262428 16.585711,1.53771098 16.7690477,2.0513526 C16.8521203,2.2846474 17.0727242,2.44036994 17.3200959,2.44036994 L17.3211343,2.44036994 L19.3124539,2.43667052 C20.3647069,2.43667052 21.2223162,3.29447399 21.224393,4.34880925 L21.2279698,6.26453179 L9.91221174,6.28580347 L9.90875038,4.37008092 C9.90759659,3.85828902 10.1055863,3.37690173 10.4660291,3.01435838 L10.4660291,3.01435838 Z M31.1376085,5.58117919 C31.1342626,3.87990751 29.7522575,2.49840462 28.0551534,2.49840462 L28.0491537,2.49840462 L21.8059013,2.51008092 C21.7987478,2.51008092 21.7917097,2.51100578 21.7845562,2.51112139 C21.2213932,1.7547052 20.3207477,1.26360694 19.3065696,1.26360694 L17.6925381,1.26672832 C17.2609067,0.506843931 16.4496796,0.0196763006 15.5582644,0.0196763006 C14.6686953,0.0212947977 13.8579297,0.511699422 13.4286059,1.2747052 L11.8148052,1.27782659 C10.991348,1.27932948 10.2179651,1.60210405 9.63680297,2.18649711 C9.52777018,2.29609249 9.42819843,2.41239306 9.33808773,2.53447399 C9.3323188,2.53424277 9.326896,2.53354913 9.32101169,2.53354913 L9.31997329,2.53354913 L3.07672086,2.54522543 C2.25614812,2.54684393 1.48334213,2.87031214 0.900910867,3.45620809 C0.318364222,4.04198844 -0.00158068707,4.81759538 3.46135865e-05,5.6396763 L0.0586469518,36.9172486 C0.0601468739,37.7394451 0.383091627,38.5136647 0.967715088,39.0972486 C1.55106938,39.6795607 2.32260621,40.0001387 3.14098675,40.0000231 L3.14698644,40.0000231 L28.11965,39.9529711 C29.8194078,39.9497341 31.1994515,38.561526 31.1963363,36.8585202 L31.1376085,5.58117919 Z" id="Fill-1" fill="#E2694A" mask="url(#mask-2)"></path>
                        </g>
                        <path d="M28.0888097,5.07042254 L28.0876561,5.07042254 L24.3424331,5.07745219 C24.0191991,5.07802839 23.7577971,5.34031509 23.7583739,5.66310289 C23.7589507,5.98566021 24.0208141,6.24656403 24.3435867,6.24656403 L24.3446249,6.24656403 L27.5047505,6.24068678 L27.5611608,36.2496961 L3.76320198,36.2944093 L3.70679176,6.28528473 L6.86680206,6.27929224 C7.1899207,6.27871604 7.451438,6.01642934 7.45086121,5.69364154 C7.45016906,5.37119946 7.18830568,5.1101804 6.86564848,5.1101804 L6.8644949,5.1101804 L3.11927187,5.11721006 C2.96399958,5.11755578 2.81541807,5.17932453 2.70582767,5.28914844 C2.59623727,5.39908759 2.53486665,5.54786269 2.53521272,5.702976 L2.59381475,36.8813276 C2.59416082,37.0363257 2.65599288,37.1848703 2.76604471,37.2943485 C2.87575047,37.4034809 3.02433198,37.4647887 3.17902747,37.4647887 L3.1800657,37.4647887 L28.1483346,37.417886 C28.3034915,37.4175403 28.452073,37.3557715 28.5617788,37.2458324 C28.6713692,37.1360084 28.7326244,36.9871181 28.7323937,36.83212 L28.6737917,5.65376843 C28.6733303,5.33144159 28.4115822,5.07042254 28.0888097,5.07042254" id="Fill-4" fill="#E2694A"></path>
                        <path d="M15.4930133,3.38028169 C15.6409527,3.38028169 15.7867818,3.32020112 15.8910724,3.21503236 C15.9962515,3.11064098 16.056338,2.96482621 16.056338,2.81690141 C16.056338,2.66819922 15.9962515,2.52327289 15.8910724,2.41810413 C15.7867818,2.31371275 15.6409527,2.25352113 15.4930133,2.25352113 C15.3449628,2.25352113 15.1992448,2.31371275 15.0948431,2.41810413 C14.989664,2.52327289 14.9295775,2.66819922 14.9295775,2.81690141 C14.9295775,2.96493727 14.989664,3.11064098 15.0948431,3.21503236 C15.1993558,3.32020112 15.3450739,3.38028169 15.4930133,3.38028169" id="Fill-6" fill="#E2694A"></path>
                        <path d="M5.80546037,14.3638254 C5.57596631,14.5889725 5.57666245,14.9532912 5.8070847,15.177531 L7.69397143,17.0152307 C7.80430958,17.1227569 7.95374758,17.1830986 8.1093348,17.1830986 L8.11049504,17.1830986 C8.26654636,17.1827583 8.41610038,17.1219629 8.5263225,17.0137562 L11.6594154,13.9392784 C11.8887934,13.7141313 11.8880973,13.349926 11.6577911,13.1255728 C11.4276008,12.9012196 11.054818,12.9019002 10.82544,13.1270473 L8.1078265,15.7939918 L6.63781144,14.3622374 C6.40738919,14.1379977 6.03483841,14.1386782 5.80546037,14.3638254" id="Fill-8" fill="#E2694A"></path>
                        <path d="M10.8254404,20.1693146 L8.1077887,22.83625 L6.63775295,21.4045005 C6.40744348,21.1801481 6.03477143,21.1808286 5.80539016,21.405975 C5.57600889,21.6312348 5.57670504,21.9954388 5.80689849,22.2197913 L7.69392781,24.0575982 C7.80879248,24.1694341 7.95904476,24.2253521 8.10929703,24.2253521 C8.26024545,24.2253521 8.41119387,24.168867 8.52617457,24.0561237 L11.6593116,20.9815429 C11.8888088,20.7563965 11.8881127,20.3921925 11.6578032,20.1677266 C11.4274938,19.9434876 11.0549377,19.9441682 10.8254404,20.1693146" id="Fill-10" fill="#E2694A"></path>
                        <path d="M10.8254209,27.2116316 L8.10779468,29.878561 L6.63777274,28.4467539 C6.40746544,28.2223924 6.03468087,28.2229595 5.80541778,28.4482284 C5.57592264,28.6734973 5.57673481,29.0378294 5.80704211,29.261964 L7.69393768,31.099845 C7.80427634,31.2073751 7.95371504,31.2676056 8.10930299,31.2676056 L8.11046323,31.2676056 C8.26651528,31.2673788 8.41607,31.2064677 8.52629264,31.0983704 L11.6594002,28.0237792 C11.8887793,27.7986238 11.8880832,27.4342916 11.6578919,27.2099302 C11.4274685,26.9857956 11.054916,26.9863627 10.8254209,27.2116316" id="Fill-12" fill="#E2694A"></path>
                        <path d="M14.3904633,15.4929577 L14.3916217,15.4929577 L25.0471993,15.4740656 C25.371777,15.4734103 25.6342656,15.2249726 25.6338022,14.9190939 C25.6331072,14.6134337 25.3701552,14.3661972 25.0460409,14.3661972 L25.0449983,14.3661972 L14.389305,14.3849802 C14.0647273,14.3856354 13.8022387,14.6341823 13.8028179,14.940061 C13.8035129,15.2457213 14.0664648,15.4929577 14.3904633,15.4929577" id="Fill-14" fill="#E2694A"></path>
                        <path d="M25.0462661,21.1267606 L25.0451077,21.1267606 L14.3894265,21.1455435 C14.0648457,21.1461988 13.8022387,21.3946365 13.8028179,21.7006244 C13.8035129,22.0062847 14.0664674,22.2535211 14.3904691,22.2535211 L14.3916274,22.2535211 L25.0474245,22.2347381 C25.3720053,22.2341921 25.6344965,21.9856452 25.6338014,21.6796573 C25.6332222,21.3742154 25.3702677,21.1267606 25.0462661,21.1267606" id="Fill-16" fill="#E2694A"></path>
                        <path d="M25.0449919,28.1690141 L14.3893107,28.1877971 C14.0647298,28.1884523 13.8022387,28.43689 13.8028179,28.7428779 C13.8035129,29.0485382 14.0664674,29.2957746 14.3904691,29.2957746 L14.3916274,29.2957746 L25.0473086,29.2769917 C25.3718895,29.2764456 25.6344965,29.0278987 25.6338014,28.7219108 C25.6332222,28.4163598 25.3702677,28.1690141 25.0462661,28.1690141 L25.0449919,28.1690141 Z" id="Fill-18" fill="#E2694A"></path>
                    </g>
                </g>
            </g>
        </g>
    </g>
</svg>