<?xml version="1.0" encoding="UTF-8"?>
<svg width="39px" height="40px" viewBox="0 0 39 40" version="1.1" xmlns="http://www.w3.org/2000/svg" xmlns:xlink="http://www.w3.org/1999/xlink">
    <!-- Generator: Sketch 42 (36781) - http://www.bohemiancoding.com/sketch -->
    <title>Fill 1</title>
    <desc>Created with Sketch.</desc>
    <defs></defs>
    <g id="SPRYKER---DOCUMENTATION" stroke="none" stroke-width="1" fill="none" fill-rule="evenodd">
        <g id="SPRYKER-2.0---DOCUMENTATION" transform="translate(-951.000000, -655.000000)" fill="#E2694A">
            <g id="ENABLEMENT" transform="translate(148.000000, 459.000000)">
                <g id="1" transform="translate(783.000000, 166.000000)">
                    <path d="M32.4037822,50.997947 L32.4037822,53.8817916 L31.7045947,53.8817916 C31.3902206,53.8817916 31.1350664,54.1368302 31.1350664,54.4510887 C31.1350664,54.7654628 31.3902206,55.0205014 31.7045947,55.0205014 L32.9731949,55.0205014 C33.287569,55.0205014 33.5427233,54.7654628 33.5427233,54.4510887 L33.5427233,50.997947 C33.5427233,50.6835729 33.287569,50.4285343 32.9731949,50.4285343 C32.6589365,50.4285343 32.4037822,50.6831102 32.4037822,50.997947 L32.4037822,50.997947 Z M46.8246248,46.1354423 C45.4727467,46.1354423 45.4727467,46.504988 45.4727467,46.8306972 L45.4727467,47.6166324 C45.4727467,48.3619698 46.0791718,48.9685105 46.8246248,48.9685105 C47.5700778,48.9685105 48.1765029,48.3619698 48.1765029,47.6166324 L48.1765029,46.8306972 C48.1765029,46.504988 48.1765029,46.1354423 46.8246248,46.1354423 L46.8246248,46.1354423 Z M46.3473961,40.8925194 L46.1645317,45.0266894 C46.431715,44.9970795 46.6685944,44.9965012 46.8246248,44.9965012 C47.44065,44.9965012 49.3153283,44.9965012 49.3153283,46.8306972 L49.3153283,47.6166324 C49.3153283,48.9901397 48.198132,50.107336 46.8246248,50.107336 C45.4511176,50.107336 44.3338056,48.9901397 44.3338056,47.6166324 L44.3338056,46.8306972 C44.3338056,46.1138131 44.6213457,45.6792644 45.0074314,45.4133534 L45.2096117,40.8423214 C45.2238383,40.5279473 45.5114941,40.2906052 45.8035451,40.298586 C46.1173409,40.3128127 46.3610444,40.5787237 46.3473961,40.8925194 L46.3473961,40.8925194 Z M56.2564266,35.1330422 C56.4960819,34.9302837 56.5263858,34.571032 56.3230489,34.3306827 C56.1202903,34.0909117 55.7610387,34.0602608 55.5206894,34.2640604 L49.3524564,39.4830408 L46.1247434,36.0970997 C45.9345921,35.8580227 45.5882948,35.8129139 45.3418153,35.9923084 L41.4706648,39.2438481 C41.2172455,39.4300668 41.1625365,39.7865425 41.3486395,40.0399618 C41.5343955,40.2928028 41.8908712,40.3480901 42.1447532,40.1618714 L45.5747622,37.2343059 L48.8268803,40.6510135 C48.9224185,40.7711882 49.0637597,40.8481046 49.2168985,40.8633722 C49.2357517,40.8652228 49.2537952,40.8662638 49.2726484,40.8662638 C49.4064714,40.8662638 49.5375184,40.819073 49.6405748,40.7312842 L56.2564266,35.1330422 Z M24.4736431,41.4368331 L37.0562415,41.4368331 C37.3705,41.4368331 37.6256542,41.1817945 37.6256542,40.8674204 C37.6256542,40.5530463 37.3705,40.2980077 37.0562415,40.2980077 L24.4736431,40.2980077 C24.159269,40.2980077 23.9042304,40.5530463 23.9042304,40.8674204 C23.9042304,41.1817945 24.159269,41.4368331 24.4736431,41.4368331 L24.4736431,41.4368331 Z M24.4736431,39.1824307 L37.0562415,39.1824307 C37.3705,39.1824307 37.6256542,38.9272764 37.6256542,38.6129023 C37.6256542,38.2986438 37.3705,38.0434896 37.0562415,38.0434896 L24.4736431,38.0434896 C24.159269,38.0434896 23.9042304,38.2986438 23.9042304,38.6129023 C23.9042304,38.9272764 24.159269,39.1824307 24.4736431,39.1824307 L24.4736431,39.1824307 Z M23.9042304,36.3584998 C23.9042304,36.672874 24.159269,36.9279126 24.4736431,36.9279126 L37.0562415,36.9279126 C37.3705,36.9279126 37.6256542,36.672874 37.6256542,36.3584998 C37.6256542,36.0441257 37.3705,35.7890871 37.0562415,35.7890871 L24.4736431,35.7890871 C24.159269,35.7890871 23.9042304,36.0441257 23.9042304,36.3584998 L23.9042304,36.3584998 Z M37.0562415,34.6735101 C37.3705,34.6735101 37.6256542,34.4183558 37.6256542,34.1039817 C37.6256542,33.7897233 37.3705,33.534569 37.0562415,33.534569 L26.9046641,33.534569 C26.59029,33.534569 26.3351358,33.7897233 26.3351358,34.1039817 C26.3351358,34.4183558 26.59029,34.6735101 26.9046641,34.6735101 L37.0562415,34.6735101 Z M39.3961195,65.5594367 C39.0817454,65.5594367 38.8267068,65.814591 38.8267068,66.1288494 L38.8267068,69.1361073 C38.8267068,69.4504815 39.0817454,69.7056357 39.3961195,69.7056357 C39.7103779,69.7056357 39.9655322,69.4504815 39.9655322,69.1361073 L39.9655322,66.1288494 C39.9655322,65.814591 39.7103779,65.5594367 39.3961195,65.5594367 L39.3961195,65.5594367 Z M58.1191915,30 L20.677674,30 C20.3632999,30 20.1081456,30.2551543 20.1081456,30.5694127 L20.1081456,60.2629616 C20.1081456,60.5773357 20.3632999,60.8323743 20.677674,60.8323743 L24.1382182,60.8323743 C22.1542376,62.3089379 20,64.8881242 20,69.1366857 C20,69.4510598 20.2551543,69.706214 20.5695284,69.706214 C20.8837868,69.706214 21.1389411,69.4510598 21.1389411,69.1366857 C21.1389411,63.3977966 25.423474,61.1074227 27.0759622,60.4377295 L27.1523003,61.8369141 C27.1625943,62.0260243 27.2662291,62.1973224 27.4285053,62.2947113 C27.5184917,62.3482636 27.6192349,62.3755602 27.720672,62.3755602 C27.8032559,62.3755602 27.8857242,62.3579794 27.9626406,62.3215453 L29.8612613,61.430356 C30.1459098,61.296533 30.2683978,60.9576381 30.1345748,60.672874 C30.0007518,60.3876471 29.660816,60.2663158 29.3772085,60.3995605 L28.2427782,60.9320765 L28.120406,58.6895874 C28.1032877,58.3752133 27.8322875,58.1377555 27.520805,58.1520979 C27.2070092,58.1691004 26.9660816,58.4373247 26.9831998,58.7515831 L27.0104965,59.2492843 C26.7627447,59.3427407 26.4097389,59.4878987 25.9906891,59.6957465 C25.9872192,59.6957465 25.9838649,59.6935489 25.980395,59.6935489 L21.2470867,59.6935489 L21.2470867,31.1389411 L57.5496631,31.1389411 L57.5496631,59.6935489 L47.5444004,59.6935489 C49.3615938,55.8280658 48.9788624,51.1859006 48.9578116,50.9472862 C48.931556,50.6533846 48.6856548,50.4285343 48.3905965,50.4285343 L45.5904924,50.4285343 C45.276234,50.4285343 45.0210797,50.6835729 45.0210797,50.997947 C45.0210797,53.9095509 44.2439349,56.0256195 42.710349,57.2870485 C40.9295897,58.7515831 38.5612584,58.6935199 37.6017118,58.5967094 C37.5465402,58.3553191 37.3466732,58.1663245 37.0870081,58.1520979 C36.7749472,58.1355579 36.5044097,58.3752133 36.4874071,58.6895874 L36.3643409,60.9320765 L35.3222103,60.4429344 C35.0375618,60.3096897 34.698667,60.431021 34.564844,60.7162479 C34.431021,61.0008964 34.5535089,61.3397912 34.8381575,61.4734985 L36.6445942,62.3215453 C36.7213949,62.357401 36.8039788,62.3755602 36.8865628,62.3755602 C36.9878842,62.3755602 37.0886274,62.3489576 37.1786138,62.2947113 C37.3410057,62.1980164 37.4446404,62.0260243 37.4548188,61.8369141 L37.5699043,59.741318 C38.7486337,59.8539745 41.3602059,59.8666975 43.4256137,58.173033 C45.1332736,56.7733858 46.0484053,54.5524101 46.1503051,51.5674753 L47.8496371,51.5674753 C47.9042304,53.214296 47.8359888,58.3853917 45.0730128,61.4023653 C43.6796114,62.9240378 41.7689616,63.6950525 39.3949628,63.6950525 C39.0807044,63.6950525 38.8255501,63.9500911 38.8255501,64.2644652 C38.8255501,64.5788393 39.0807044,64.8339936 39.3949628,64.8339936 C42.1032299,64.8339936 44.2974872,63.9370211 45.9158546,62.1684064 C46.2961571,61.7521326 46.6288061,61.3027788 46.922592,60.8323743 L49.7185322,60.8323743 L49.7185322,69.4305873 C49.7185322,69.7448457 49.9736865,70 50.2880606,70 C50.6023191,70 50.8574733,69.7448457 50.8574733,69.4305873 L50.8574733,60.8323743 L52.2811786,60.8323743 L52.2811786,69.4305873 C52.2811786,69.7448457 52.5362172,70 52.8505913,70 C53.1649654,70 53.420004,69.7448457 53.420004,69.4305873 L53.420004,60.8323743 L58.1180349,60.8323743 C58.432409,60.8323743 58.6874476,60.5773357 58.6874476,60.2629616 L58.6874476,30.5694127 C58.6884886,30.2551543 58.43345,30 58.1191915,30 L58.1191915,30 Z M38.7310528,47.5465402 C38.7532603,47.5465402 38.7753521,47.5453836 38.7981378,47.542492 C39.1101987,47.5061736 39.334008,47.2230287 39.297574,46.9110835 C38.9161149,43.649134 36.1143915,42.8155452 34.6776162,42.8519793 L29.7786774,42.8519793 C29.4643033,42.8519793 29.209149,43.1070179 29.209149,43.421392 C29.209149,43.7357661 29.4643033,43.9908047 29.7786774,43.9908047 L34.6844403,43.9908047 C34.8114391,43.9960096 37.8101379,43.9977446 38.1666137,47.0436342 C38.2002718,47.3329092 38.4462886,47.5465402 38.7310528,47.5465402 L38.7310528,47.5465402 Z M36.8375213,48.8164127 C36.8375213,49.1306711 37.0926756,49.3858254 37.4070497,49.3858254 C37.7213082,49.3858254 37.9764624,49.1306711 37.9764624,48.8164127 C37.9764624,45.5438221 35.5368823,44.6468496 34.2391348,44.6291531 L29.0440968,44.6291531 C28.7297227,44.6291531 28.4745684,44.8843073 28.4745684,45.1986814 C28.4745684,45.5130555 28.7297227,45.7680942 29.0440968,45.7680942 L34.2282624,45.7680942 C34.4959084,45.77434 36.8375213,45.9133678 36.8375213,48.8164127 L36.8375213,48.8164127 Z M27.3556372,45.9042304 C26.8351502,46.531128 26.4997253,47.3159067 26.3841772,48.1757511 C26.3425382,48.4872336 26.5612584,48.7737328 26.8727409,48.8158344 C26.8983026,48.8193043 26.92398,48.8209236 26.9489634,48.8209236 C27.229795,48.8209236 27.4740769,48.6130758 27.5128242,48.3272706 C27.5993407,47.6803632 27.8481335,47.0938322 28.2320215,46.6319868 C28.4330451,46.3900182 28.399387,46.0312292 28.1574184,45.8302056 C27.9159124,45.629182 27.5566608,45.6622618 27.3556372,45.9042304 L27.3556372,45.9042304 Z M25.2816702,67.341237 C24.9674117,67.341237 24.7121418,67.5963913 24.7121418,67.9107654 L24.7121418,69.1361073 C24.7121418,69.4504815 24.9674117,69.7056357 25.2816702,69.7056357 C25.5960443,69.7056357 25.8510829,69.4504815 25.8510829,69.1361073 L25.8510829,67.9107654 C25.8510829,67.5963913 25.5960443,67.341237 25.2816702,67.341237 L25.2816702,67.341237 Z M33.3742012,62.6295579 C33.2260359,62.6034179 33.0723188,62.6341844 32.9470549,62.718966 C32.6833415,62.8994014 32.4471561,62.9723853 32.3388948,62.998641 C32.2272793,62.971807 31.9920192,62.8983605 31.7289998,62.718966 C31.6043143,62.6341844 31.4511754,62.6028395 31.3019692,62.6295579 C31.1532256,62.6575485 31.0222942,62.7434867 30.9369343,62.8682879 C30.7051441,63.208108 29.5907238,68.9807709 29.581008,69.0370992 C29.5258364,69.3468467 29.7325275,69.6423676 30.0422751,69.6970766 C30.3549143,69.7534049 30.6476593,69.5455571 30.7022526,69.2358095 C30.8919411,68.1663823 31.4892288,65.3032415 31.7819738,64.0178701 C32.051933,64.1158373 32.2426626,64.1397797 32.2762051,64.1437122 C32.3166874,64.1482231 32.358789,64.1482231 32.3992713,64.1437122 C32.4328138,64.140358 32.6235434,64.1164156 32.8935026,64.0178701 C33.1862476,65.3032415 33.7836509,68.1663823 33.9738022,69.2358095 C34.0227279,69.5118989 34.2624989,69.7056357 34.5336148,69.7056357 C34.566579,69.7056357 34.6002371,69.7027441 34.6337796,69.6964983 C34.9435272,69.6417893 35.1497557,69.3462684 35.0950467,69.0365208 C35.0847526,68.9801926 33.9709106,63.2076454 33.7386577,62.8675939 C33.6543388,62.7434867 33.5228291,62.6575485 33.3742012,62.6295579 L33.3742012,62.6295579 Z M32.3388948,62.4200908 C32.5153977,62.4200908 33.9527514,62.0636151 33.9527514,60.6239482 L32.3388948,60.6239482 L30.7250383,60.6239482 C30.72446,62.0636151 32.1623919,62.4200908 32.3388948,62.4200908 L32.3388948,62.4200908 Z M24.7139924,50.7359685 C24.7230142,50.4240234 24.7508892,49.4746552 25.4639563,49.2052743 C26.1677703,48.9405199 26.8585143,49.6290663 26.9894457,49.7690195 C27.2041176,49.9991904 27.1922043,50.3595986 26.9627274,50.5742706 C26.7332504,50.7889425 26.3727265,50.7770292 26.1574762,50.5475523 C26.0851864,50.4712142 25.9838649,50.3903652 25.901281,50.3385478 C25.8802302,50.4228667 25.8579071,50.5588873 25.8522395,50.7696267 C25.8095596,52.2348553 26.9434115,52.7012116 26.9911806,52.7200648 C27.1927826,52.7996414 27.3362057,52.988289 27.3544805,53.204002 C27.6916404,57.2243588 30.8577047,58.5249978 32.3383165,58.5249978 C33.8189284,58.5249978 36.9855709,57.2243588 37.3227308,53.204002 C37.3410057,52.9848191 37.4844288,52.7951306 37.6905416,52.7183298 C37.7339155,52.7012116 38.8676517,52.2348553 38.8249718,50.7696267 C38.8186103,50.5588873 38.7965185,50.4228667 38.7759304,50.3385478 C38.6928838,50.3909435 38.5914467,50.4717925 38.5180002,50.5491716 C38.3015933,50.7770292 37.9417633,50.7873233 37.7133274,50.5725356 C37.4850071,50.3578637 37.4730937,49.9991904 37.6871873,49.7702918 C37.818697,49.629529 38.5100194,48.9399416 39.2127924,49.2064309 C39.9257439,49.4758118 39.9536188,50.42518 39.9627563,50.7371252 C40.013417,52.459243 38.9781106,53.29688 38.4240812,53.6203915 C37.9201342,57.7859064 34.5996588,59.6650956 32.3377382,59.6650956 C30.0759333,59.6650956 26.7554579,57.786369 26.2515109,53.6203915 C25.6985224,53.2957233 24.663216,52.4580863 24.7139924,50.7359685 L24.7139924,50.7359685 Z" id="Fill-1"></path>
                </g>
            </g>
        </g>
    </g>
</svg>